HIERARCHY
ROOT pelvis
{
	OFFSET 0 95.0 0
	CHANNELS 6 Xposition Yposition Zposition Xrotation Yrotation Zrotation
JOINT spine
{
	OFFSET 0 12.0 0
	CHANNELS 3 Xrotation Yrotation Zrotation
JOINT spine1
{
	OFFSET 0 12.0 0
	CHANNELS 3 Xrotation Yrotation Zrotation
JOINT chest
{
	OFFSET 0 12.0 0
	CHANNELS 3 Xrotation Yrotation Zrotation
JOINT neck
{
	OFFSET 0 14.000000000000002 0
	CHANNELS 3 Xrotation Yrotation Zrotation
JOINT head
{
	OFFSET 0 10.0 0
	CHANNELS 3 Xrotation Yrotation Zrotation
	End Site
{
		OFFSET 0 0 0
}
}
}
JOINT left_shoulder
{
	OFFSET 8.0 10.0 0
	CHANNELS 3 Xrotation Yrotation Zrotation
JOINT left_upper_arm
{
	OFFSET 12.0 0 0
	CHANNELS 3 Xrotation Yrotation Zrotation
JOINT left_lower_arm
{
	OFFSET 28.000000000000004 0 0
	CHANNELS 3 Xrotation Yrotation Zrotation
JOINT left_hand
{
	OFFSET 25.0 0 0
	CHANNELS 3 Xrotation Yrotation Zrotation
	End Site
{
		OFFSET 0 0 0
}
}
}
}
}
JOINT right_shoulder
{
	OFFSET -8.0 10.0 0
	CHANNELS 3 Xrotation Yrotation Zrotation
JOINT right_upper_arm
{
	OFFSET -12.0 0 0
	CHANNELS 3 Xrotation Yrotation Zrotation
JOINT right_lower_arm
{
	OFFSET -28.000000000000004 0 0
	CHANNELS 3 Xrotation Yrotation Zrotation
JOINT right_hand
{
	OFFSET -25.0 0 0
	CHANNELS 3 Xrotation Yrotation Zrotation
	End Site
{
		OFFSET 0 0 0
}
}
}
}
}
}
}
}
JOINT left_hip
{
	OFFSET 10.0 0 0
	CHANNELS 3 Xrotation Yrotation Zrotation
JOINT left_upper_leg
{
	OFFSET 0 -43.0 0
	CHANNELS 3 Xrotation Yrotation Zrotation
JOINT left_lower_leg
{
	OFFSET 0 -42.0 0
	CHANNELS 3 Xrotation Yrotation Zrotation
JOINT left_foot
{
	OFFSET 0 0 15.0
	CHANNELS 3 Xrotation Yrotation Zrotation
	End Site
{
		OFFSET 0 0 0
}
}
}
}
}
JOINT right_hip
{
	OFFSET -10.0 0 0
	CHANNELS 3 Xrotation Yrotation Zrotation
JOINT right_upper_leg
{
	OFFSET 0 -43.0 0
	CHANNELS 3 Xrotation Yrotation Zrotation
JOINT right_lower_leg
{
	OFFSET 0 -42.0 0
	CHANNELS 3 Xrotation Yrotation Zrotation
JOINT right_foot
{
	OFFSET 0 0 15.0
	CHANNELS 3 Xrotation Yrotation Zrotation
	End Site
{
		OFFSET 0 0 0
}
}
}
}
}
}
MOTION
Frames: 11
Frame Time: 0.033367
0.000000 0.000000 0.000000 -57.219130 81.215417 58.847904 -0.000000 35.578374 0.000000 -0.000000 0.000000 -0.000000 0.000000 0.000000 -0.000000 9.944161 4.708263 50.585863 -10.907704 -8.611358 -31.024235 -0.000000 -0.000000 -16.698208 4.844116 18.897249 -28.521048 1.007068 -18.429372 6.201838 -1.640660 28.363636 6.485996 -0.000000 0.000000 -16.698208 -1.019758 1.342778 74.427832 2.353583 31.248780 -8.401848 12.577344 24.336025 -54.141391 -40.278812 1.483419 -4.043557 47.371556 5.314178 12.077970 67.498586 4.201670 -2.808088 -29.255407 -6.804892 -1.778004 5.028886 -0.312211 -7.100599 40.001076 7.934712 21.576074 -0.046361 -38.960403 -0.016399 -17.195263 20.177699 3.081920
0.000000 0.000000 0.000000 -61.126996 82.527225 62.593103 -0.000000 36.574331 -0.000000 -0.000000 0.000000 0.000000 -0.000000 0.000000 0.000000 9.448768 4.484259 50.698738 -10.454375 -8.909839 -31.125231 0.000000 0.000000 -16.869561 5.017398 19.420475 -28.723133 0.904171 -18.912524 5.424622 -1.833210 28.053325 7.328673 0.000000 0.000000 -16.869561 -0.083411 0.109393 74.650421 1.962834 28.959676 -7.590372 12.313471 23.676110 -54.464381 -40.813338 1.669334 -4.485130 45.722420 5.172176 12.229118 67.187869 4.429576 -2.943146 -30.254315 -7.316197 -1.980277 5.136431 -0.304599 -6.782995 40.273273 8.357560 22.538241 -1.886574 -39.549636 -0.678325 -17.229033 20.659300 3.163332
0.000000 0.000000 0.000000 -65.920009 84.306097 67.205749 -0.000000 37.119444 -0.000000 -0.000000 0.000000 -0.000000 -0.000000 0.000000 0.000000 9.918731 4.707781 50.695329 -10.181524 -8.922183 -30.653570 -0.000000 0.000000 -17.089254 5.341691 20.091178 -29.505924 0.759802 -18.119850 4.762265 -1.635529 26.187434 7.023428 -0.000000 0.000000 -17.089254 0.670317 -0.874195 74.960255 1.593403 26.600970 -6.732992 12.012819 22.824398 -55.061291 -41.813398 1.934059 -5.060212 44.971362 5.039478 12.137245 64.198651 3.993273 -2.505525 -30.641071 -7.578336 -2.078922 4.940119 -0.281016 -6.507455 40.586030 8.327284 22.274875 -4.957403 -40.532689 -1.831476 -17.103292 20.687386 3.144270
0.000000 0.000000 0.000000 -74.969268 85.947430 76.294019 0.000000 36.798334 0.000000 -0.000000 0.000000 0.000000 -0.000000 0.000000 0.000000 10.658277 4.985753 50.039472 -10.499483 -9.377010 -29.780258 -0.000000 0.000000 -17.131983 5.785363 21.011887 -30.483480 0.576235 -17.018218 3.850070 -1.206604 24.007949 5.670269 -0.000000 0.000000 -17.131983 1.055684 -1.364525 75.454622 1.337662 24.964416 -6.037367 11.521905 21.962711 -54.942187 -42.251342 2.111268 -5.460669 44.781729 5.051232 12.222146 59.558843 3.888348 -2.225598 -30.240546 -7.536390 -2.039061 4.914251 -0.274912 -6.399866 41.278991 8.257768 21.698457 -6.489451 -41.103911 -2.435254 -17.051534 20.522116 3.109042
0.000000 0.000000 0.000000 -88.529623 87.337183 89.931578 0.000000 36.086589 0.000000 -0.000000 0.000000 0.000000 -0.000000 0.000000 -0.000000 11.547672 5.292994 49.133392 -11.137892 -9.361083 -28.802206 -0.000000 0.000000 -17.242071 6.250123 22.045001 -31.315123 0.416938 -16.428887 2.887593 -0.925543 22.649723 4.619050 -0.000000 0.000000 -17.242071 1.144049 -1.470710 75.756709 0.948320 23.638180 -4.529551 11.124234 21.275545 -54.811018 -42.505305 2.267794 -5.826558 44.839857 4.967050 12.002539 55.584729 3.121515 -1.645550 -29.881234 -7.412049 -1.980387 6.048518 -0.333890 -6.313423 40.410244 7.834647 21.080250 -9.136947 -41.812344 -3.496518 -16.627030 19.952225 2.944698
0.000000 0.000000 0.000000 -116.955710 88.417980 118.551311 -0.000000 35.350327 -0.000000 0.000000 0.000000 -0.000000 0.000000 0.000000 0.000000 12.119342 5.414036 48.015572 -11.651609 -9.081088 -28.010919 -0.000000 0.000000 -17.398151 6.822072 23.037021 -32.606338 0.233921 -16.343456 1.628882 -0.803822 21.758275 4.180601 -0.000000 0.000000 -17.398151 1.328128 -1.702964 75.899159 0.710008 23.320442 -3.439539 10.828682 20.717399 -54.815508 -42.693684 2.370652 -6.060958 44.999630 4.973861 11.971870 51.973102 2.169033 -1.057374 -29.600137 -7.319190 -1.936273 7.338610 -0.400113 -6.233053 39.115312 7.396802 20.624648 -11.738009 -42.217679 -4.544932 -16.212906 19.439411 2.795187
0.000000 0.000000 0.000000 -168.395618 88.543621 170.447699 0.000000 34.233114 0.000000 -0.000000 0.000000 -0.000000 -0.000000 0.000000 0.000000 12.336704 5.437871 47.442678 -12.818327 -9.276582 -28.056882 0.000000 0.000000 -17.608364 7.497359 24.048647 -34.196495 -0.059298 -17.018090 -0.396344 -0.734957 21.074997 3.949531 0.000000 0.000000 -17.608364 1.370744 -1.757430 75.904679 0.414165 23.273159 -2.010940 10.465700 20.217662 -54.378956 -42.163376 2.403870 -6.230476 44.418903 4.918295 12.009473 48.111533 1.746907 -0.779860 -29.069910 -7.184061 -1.864881 8.833405 -0.446523 -5.776188 37.493161 6.787522 19.822619 -14.488966 -42.998245 -5.732920 -15.571077 18.947559 2.614038
0.000000 0.000000 0.000000 155.451890 87.740368 -152.653760 0.000000 32.859677 0.000000 -0.000000 0.000000 -0.000000 -0.000000 0.000000 0.000000 11.894496 5.163978 46.813766 -12.898016 -9.650065 -28.230466 -0.000000 0.000000 -17.831326 8.717335 25.187758 -37.675250 -0.569252 -18.161285 -3.560545 -0.739913 19.755642 4.247333 -0.000000 0.000000 -17.831326 1.229687 -1.572791 76.038798 0.164785 23.395522 -0.795859 10.490511 20.200797 -54.529683 -41.837620 2.510239 -6.561069 44.166817 4.894944 12.027793 45.498751 2.709295 -1.136242 -29.173168 -7.282594 -1.897535 9.317521 -0.482660 -5.917678 36.671806 6.415708 19.197231 -15.139963 -43.683539 -6.098155 -15.563349 18.864086 2.601007
0.000000 0.000000 0.000000 142.277920 86.539913 -139.048004 -0.000000 31.539319 -0.000000 -0.000000 0.000000 0.000000 -0.000000 0.000000 0.000000 10.991087 4.725792 46.427984 -12.671174 -10.184016 -28.123768 0.000000 0.000000 -17.486663 9.285176 24.220619 -41.459402 -1.223659 -18.518214 -7.495607 -0.912263 15.713930 6.603615 0.000000 0.000000 -17.486663 0.911561 -1.162326 76.210337 -0.480789 25.192802 2.151322 11.343858 20.991344 -56.391571 -41.792925 2.635722 -6.896433 44.474915 4.969589 12.117147 43.146122 3.640588 -1.439840 -29.146041 -7.455097 -1.940713 9.383461 -0.471843 -5.744516 36.776755 6.314743 18.843236 -13.908623 -43.794748 -5.613611 -15.923882 19.660687 2.776573
0.000000 0.000000 0.000000 136.677636 85.514095 -133.390564 0.000000 29.594747 0.000000 -0.000000 0.000000 0.000000 -0.000000 0.000000 0.000000 10.205931 4.429648 46.834332 -12.475464 -10.323343 -28.334480 -0.000000 0.000000 -16.672005 8.318609 20.793972 -43.241289 -1.827742 -22.144258 -9.320310 -0.829571 16.048139 5.879702 -0.000000 0.000000 -16.672005 0.135838 -0.172086 76.572652 -1.217050 26.708776 5.123516 12.989038 23.051273 -58.345441 -41.786352 2.698870 -7.062520 45.406547 5.155259 12.283126 41.469142 4.622983 -1.750882 -28.854227 -7.528492 -1.939392 9.279464 -0.457082 -5.627637 37.682570 6.475504 18.825843 -10.541675 -44.067067 -4.276381 -16.680785 20.629796 3.056795
0.000000 0.000000 0.000000 124.895916 85.094424 -121.357716 -0.000000 27.075844 -0.000000 -0.000000 0.000000 0.000000 0.000000 0.000000 -0.000000 10.021259 4.353094 46.872171 -11.718352 -9.236000 -28.362973 -0.000000 0.000000 -15.966007 7.998239 18.775924 -45.842308 -1.937126 -23.449142 -9.314189 -0.647259 16.107890 4.571858 -0.000000 0.000000 -15.966007 -1.326277 1.674492 76.760321 -1.963091 27.185292 8.106249 14.775235 25.168379 -60.296674 -41.753389 2.551871 -6.684369 46.774251 5.250049 12.102927 40.581104 6.699288 -2.479325 -28.817873 -7.449007 -1.916340 8.632939 -0.471376 -6.238951 39.836960 6.689565 18.324308 -5.136435 -44.406761 -2.097665 -17.973025 21.661926 3.466025
